<svg width="44" height="44" viewBox="0 0 44 44" fill="none" xmlns="http://www.w3.org/2000/svg">
<g clip-path="url(#clip0_2856_1700)">
<path d="M30.0708 6.27947C26.4289 2.41468 20.0552 1.25472 15.2956 3.58721C13.9247 4.25886 12.6629 5.14151 11.7016 6.34591C10.782 7.49694 10.1596 8.82018 9.78213 10.2408C9.04603 13.0103 9.41174 16.0126 10.3651 18.6808C11.4179 21.6279 13.1001 24.3012 14.7289 26.9533C16.4622 29.7743 18.2085 32.5873 19.9502 35.4029C20.3816 36.1015 20.8192 36.7956 21.2567 37.4906C21.7815 38.3244 23.0741 38.5784 23.8657 37.9848C23.9408 37.9283 24.0109 37.8682 24.0759 37.8044C24.26 37.866 24.4697 37.8497 24.6589 37.7116C26.9179 36.0673 28.5329 33.5534 29.8543 31.1242C31.1955 28.6584 32.1275 25.9257 32.7495 23.1922C33.3879 20.3847 33.7215 17.4111 33.5099 14.5333C33.2832 11.4516 32.2018 8.54094 30.0716 6.28021L30.0708 6.27947ZM30.2457 17.4396C30.2405 17.7531 30.2304 18.0661 30.2156 18.3794C30.2113 18.467 30.2054 18.5539 30.2019 18.6415C30.1948 18.8133 30.2064 18.6027 30.2088 18.5457C30.2031 18.7159 30.1848 18.8877 30.1703 19.0569C30.1163 19.7126 30.0413 20.3657 29.947 21.0161C29.7617 22.2944 29.4987 23.5605 29.1625 24.8068C28.9938 25.4329 28.8023 26.0517 28.6001 26.6672C28.5748 26.7387 28.5502 26.8101 28.5248 26.8807C28.4734 27.0253 28.4212 27.1699 28.3674 27.3138C28.2531 27.6221 28.134 27.9283 28.0099 28.2333C27.0335 30.6384 25.8869 32.9745 24.5205 35.1834C24.4732 35.2604 24.4283 35.338 24.3826 35.4157C24.3735 35.4003 24.3644 35.3841 24.3545 35.3688C22.6897 32.7264 20.9918 30.1039 19.304 27.4759C17.7012 24.9788 15.9839 22.5235 14.5941 19.897C14.5638 19.8399 14.4377 19.5901 14.4379 19.594C14.3848 19.4856 14.3309 19.3773 14.2794 19.268C14.1258 18.9448 13.983 18.616 13.8487 18.2842C13.5811 17.6207 13.3476 16.9427 13.161 16.251C13.12 16.0993 13.0815 15.9474 13.0452 15.7946C13.0314 15.7347 13.0177 15.6748 13.004 15.6157C12.9317 15.302 13.0045 15.6693 13.0212 15.7026C12.9008 15.466 12.9102 15.0521 12.879 14.7884C12.805 14.1753 12.7745 13.556 12.792 12.9381C12.794 12.8763 12.7961 12.8153 12.7982 12.7535C12.8085 12.4325 12.785 12.8041 12.7908 12.8413C12.7682 12.7132 12.8164 12.5448 12.8311 12.4133C12.8658 12.1097 12.9126 11.8078 12.9731 11.508C13.033 11.2107 13.1066 10.9157 13.1934 10.6253C13.2037 10.591 13.2464 10.5039 13.2474 10.4614C13.2959 10.3331 13.3453 10.2055 13.3996 10.0791C13.5102 9.82156 13.6331 9.56871 13.7685 9.323C13.8365 9.19972 13.9138 9.0822 13.9819 8.95972C13.9819 8.95972 13.9819 8.95972 13.9818 8.95892C14.0254 8.89741 14.069 8.8351 14.1143 8.77428C14.2881 8.54189 14.4754 8.31898 14.6748 8.10804C14.7774 7.99996 14.8878 7.89934 14.9905 7.79205C15.0329 7.74745 15.0411 7.73807 15.0304 7.74602C15.0745 7.71411 15.1195 7.68373 15.146 7.66266C15.3782 7.47585 15.6192 7.30123 15.8691 7.13961C15.9944 7.05877 16.1215 6.98021 16.2505 6.90553C16.3242 6.86273 16.3997 6.82302 16.4734 6.78023C16.481 6.77569 16.4856 6.77296 16.4918 6.76933C17.057 6.51438 17.6233 6.28499 18.2218 6.11741C18.3668 6.07684 18.5119 6.03946 18.6581 6.00521C18.6966 5.99612 18.7257 5.98928 18.7492 5.98362C18.7579 5.98222 18.7674 5.98075 18.7776 5.97844C19.0886 5.92546 19.3984 5.87817 19.7126 5.84739C20.2466 5.79643 20.7783 5.79289 21.3131 5.81075C21.3541 5.81429 21.3951 5.81783 21.4361 5.82137C21.5889 5.83631 21.7411 5.8537 21.8927 5.87433C22.1774 5.91288 22.4612 5.96271 22.7425 6.02231C23.0052 6.07762 23.2653 6.14192 23.5236 6.21515C23.6369 6.24727 23.7496 6.28263 23.8622 6.3172C23.9181 6.33892 23.9784 6.35553 24.0333 6.37651C24.5697 6.57685 25.0913 6.81666 25.5916 7.0948C25.8201 7.22137 26.0402 7.39818 26.2762 7.5066C26.2027 7.4725 26.1565 7.45091 26.1284 7.43766C26.1805 7.46284 26.2824 7.51578 26.3354 7.55372C26.4742 7.65372 26.61 7.75635 26.7436 7.86232C27.1563 8.19063 27.5347 8.55257 27.897 8.93566C27.9275 8.97276 27.9588 9.00902 27.9894 9.04612C28.0732 9.14917 28.1548 9.25318 28.2349 9.35969C28.4181 9.60315 28.5891 9.85466 28.7478 10.115C28.8218 10.2364 28.8935 10.3595 28.9621 10.4837C28.9851 10.5261 29.0096 10.5684 29.0326 10.6117C29.0364 10.621 29.0404 10.6319 29.047 10.6467C29.1805 10.9681 29.3286 11.2805 29.4466 11.6086C29.5565 11.9132 29.654 12.2227 29.7398 12.5354C29.7891 12.7146 29.832 12.895 29.8759 13.0761C29.8883 13.1281 29.8959 13.3278 29.8888 13.124C29.8803 12.8764 29.9132 13.2553 29.9226 13.3107C30.1668 14.6774 30.2639 16.0545 30.2427 17.4422L30.2457 17.4396Z" fill="#F8F9FA"/>
<path d="M26.1327 7.43683C26.0856 7.41457 26.0971 7.41935 26.1327 7.43683V7.43683Z" fill="#F8F9FA"/>
<path d="M22.6147 10.333C22.4159 10.3349 22.2305 10.4023 22.072 10.5119C22.0306 10.4683 21.9794 10.4327 21.9184 10.4057C21.1926 10.0897 20.4659 9.97713 19.6948 10.2016C18.9652 10.4144 18.2538 10.875 17.8051 11.4942C16.8012 12.8793 16.7485 14.7866 17.6698 16.2301C18.5364 17.5886 20.2883 18.4142 21.8864 18.1599C23.682 17.8742 25.1562 16.5795 25.6492 14.8225C26.2214 12.782 24.8792 10.3116 22.6155 10.3329L22.6147 10.333ZM23.2697 14.1376C23.271 14.1327 23.2533 14.2004 23.2441 14.2403C23.2308 14.278 23.2082 14.3437 23.2095 14.3396C23.15 14.4815 23.0812 14.6168 23.0042 14.7495C23.0042 14.7495 23.0042 14.7503 23.0035 14.7512C22.9728 14.7926 22.9414 14.834 22.909 14.8739C22.8348 14.9656 22.7546 15.0521 22.6709 15.1356C22.6706 15.1308 22.5373 15.2459 22.5008 15.2724C22.3943 15.3496 22.2827 15.4206 22.1682 15.4847C22.1154 15.5068 22.0627 15.5297 22.0098 15.5502C21.9001 15.5923 21.7891 15.6265 21.6771 15.6584C21.7325 15.6393 21.4815 15.6937 21.4188 15.6997C21.3061 15.7108 21.1946 15.7145 21.0819 15.7144C21.036 15.7088 20.9892 15.7025 20.9432 15.6953C20.8301 15.6768 20.7196 15.6509 20.6089 15.621C20.6624 15.6316 20.4177 15.5478 20.3681 15.5241C20.2657 15.476 20.1668 15.4212 20.0693 15.3632C20.0264 15.3326 19.9844 15.3019 19.9429 15.2695C19.8483 15.1953 19.7596 15.115 19.6738 15.0305C19.7068 15.057 19.5437 14.8722 19.5136 14.8295C19.4807 14.7821 19.4502 14.7338 19.4189 14.6855C19.4198 14.6871 19.3941 14.6392 19.3759 14.6084C19.3617 14.5758 19.338 14.523 19.3389 14.5245C19.3182 14.4683 19.2968 14.4138 19.2777 14.3575C19.2586 14.3011 19.2419 14.2446 19.2251 14.1874C19.2083 14.1309 19.2013 14.1105 19.1993 14.1043C19.2013 14.1097 19.2077 14.1213 19.2017 14.0705C19.1871 13.9522 19.1756 13.8344 19.172 13.7146C19.171 13.6658 19.17 13.6162 19.1713 13.5673C19.1723 13.5576 19.1745 13.5446 19.1765 13.5277C19.1915 13.4097 19.2121 13.2929 19.2391 13.1773C19.2792 13.0088 19.2735 13.0292 19.3449 12.8736C19.5329 12.4665 19.8548 12.1012 20.2832 11.8654C20.6624 11.6571 21.1179 11.4883 21.5598 11.4566C21.5539 12.0345 21.9228 12.4435 22.4687 12.6087C22.2957 12.5568 22.548 12.6464 22.5999 12.6684C22.6517 12.6904 22.7035 12.7116 22.754 12.7369C22.7689 12.7439 22.8355 12.7833 22.8746 12.8046C22.8965 12.8215 22.9201 12.839 22.9227 12.8413C22.9637 12.88 23.007 12.9171 23.0489 12.9566C23.0498 12.9573 23.0506 12.9581 23.0515 12.9588C23.0912 13.0121 23.1278 13.0672 23.1674 13.1205C23.1922 13.1548 23.2069 13.1706 23.2153 13.1772C23.217 13.1891 23.2216 13.2096 23.2319 13.2433C23.2537 13.3154 23.2809 13.3832 23.3011 13.4563C23.3016 13.4634 23.3029 13.4706 23.3043 13.4793C23.3129 13.5451 23.3167 13.6105 23.3229 13.6766C23.3228 13.6742 23.3247 13.7365 23.3267 13.7764C23.3238 13.8151 23.32 13.8746 23.32 13.8746C23.307 13.9628 23.2891 14.0489 23.2712 14.1359L23.2697 14.1376Z" fill="#F8F9FA"/>
<path d="M39.2598 34.1729C38.9741 33.1951 38.1624 32.4614 37.2969 31.987C36.4181 31.5047 35.3799 31.2441 34.3883 31.1365C33.2647 31.0149 31.9913 30.967 30.9479 31.4548C29.9224 31.9349 30.1784 33.4145 31.3535 33.4172C32.1125 33.4194 32.9613 33.2784 33.6605 33.3272C34.3804 33.377 35.2023 33.5477 35.7641 33.7799C35.9253 33.8463 36.0839 33.9209 36.2374 34.0039C36.3055 34.0408 36.3729 34.0793 36.4388 34.1195C36.398 34.0952 36.2986 34.01 36.4841 34.15C36.6055 34.2416 36.7185 34.3386 36.8304 34.4421C36.997 34.597 36.8903 34.5108 36.8604 34.4713C36.9192 34.5472 36.9726 34.6244 37.023 34.7057C36.9931 34.6662 37.0664 34.8348 37.1042 34.9307C37.0866 34.9303 37.1098 35.217 37.1247 35.1439C37.0941 35.4255 36.9723 35.6951 36.8587 35.852C36.4952 36.3531 35.8461 36.7461 35.3334 36.9981C34.5642 37.3755 33.7671 37.6963 32.9574 37.9739C31.3863 38.5114 29.7927 38.8759 28.1878 39.1587C24.6482 39.7826 21.0616 40.1231 17.47 40.2325C15.9198 40.28 14.5439 40.285 13.0691 40.0301C11.71 39.7952 10.3004 39.3877 9.27495 38.5216C8.77915 38.1022 8.30869 37.5769 8.37765 36.8954C8.43241 36.3534 8.86363 35.8035 9.317 35.4563C9.97133 34.9557 10.7429 34.6351 11.5318 34.4149C12.4477 34.1595 13.3998 34.1698 14.3164 33.9359C14.6671 33.8465 14.6785 33.3012 14.3628 33.1607C13.4749 32.7663 12.4769 32.8401 11.5381 33.0194C10.6237 33.1939 9.74123 33.4814 8.9245 33.9326C7.41561 34.766 6.25378 36.2903 6.67965 38.0857C7.09186 39.8227 8.80719 40.9592 10.3543 41.5974C12.0585 42.3007 13.9206 42.486 15.7467 42.5345C19.7575 42.64 23.8181 42.2247 27.7687 41.5609C29.7068 41.2347 31.6447 40.8366 33.5126 40.2134C34.4367 39.9046 35.3425 39.5393 36.2155 39.1043C37.0768 38.6741 37.9425 38.1803 38.5457 37.4054C39.2647 36.4822 39.5963 35.3186 39.2614 34.1728L39.2598 34.1729Z" fill="#F8F9FA"/>
</g>
<defs>
<clipPath id="clip0_2856_1700">
<rect width="40" height="40" fill="white" transform="translate(0.671875 3.75) rotate(-4)"/>
</clipPath>
</defs>
</svg>
